<?xml version="1.0" encoding="utf-8"?>
<!-- Generator: Adobe Illustrator 21.1.0, SVG Export Plug-In . SVG Version: 6.00 Build 0)  -->
<svg version="1.1" id="Lager_1" xmlns="http://www.w3.org/2000/svg" xmlns:xlink="http://www.w3.org/1999/xlink" x="0px" y="0px"
	 viewBox="0 0 844.9 248" style="enable-background:new 0 0 844.9 248;" xml:space="preserve">
<style type="text/css">
	.st0{fill:#B3B3B3;}
	.st1{fill:#FFFFFF;}
	.st2{fill:#FF931E;}
	.st3{font-family:'ComicSansMS';}
	.st4{font-size:75px;}
</style>
<title>logo-text</title>
<image style="overflow:visible;opacity:0.75;enable-background:new    ;" width="57" height="116" xlink:href="B0F84464.png"  transform="matrix(1 0 0 1 19 4)">
</image>
<rect x="-1.8" y="42.9" transform="matrix(2.967024e-03 -1 1 2.967024e-03 -15.2046 95.6208)" class="st0" width="84.3" height="25"/>
<path class="st1" d="M28.3,13.5l24.4,0.1l-0.2,83.7l-24.4-0.1L28.3,13.5 M27.7,13l-0.2,84.8L53,97.9L53.3,13H27.7z"/>
<image style="overflow:visible;opacity:0.75;enable-background:new    ;" width="199" height="57" xlink:href="B0F84465.png"  transform="matrix(1 0 0 1 45 5)">
</image>
<rect x="124.7" y="-57.6" transform="matrix(2.967024e-03 -1 1 2.967024e-03 110.7212 163.7391)" class="st0" width="25.6" height="167.9"/>
<path class="st1" d="M53.9,13.6l167.4,0.5l-0.1,25L53.8,38.6L53.9,13.6 M53.3,13l-0.1,26.2l168.5,0.5l0.1-26.1L53.3,13z"/>
<image style="overflow:visible;opacity:0.75;enable-background:new    ;" width="57" height="116" xlink:href="B0F84463.png"  transform="matrix(1 0 0 1 213 5)">
</image>
<rect x="192.3" y="43.5" transform="matrix(2.967024e-03 -1 1 2.967024e-03 177.7428 290.2867)" class="st0" width="84.3" height="25"/>
<path class="st1" d="M222.3,14.1l24.4,0.1l-0.2,83.7l-24.4-0.1L222.3,14.1 M221.8,13.5l-0.2,84.8l25.6,0.1l0.2-84.8
	C247.4,13.6,221.8,13.5,221.8,13.5z"/>
<image style="overflow:visible;opacity:0.75;enable-background:new    ;" width="187" height="49" xlink:href="B0F8446C.png"  transform="matrix(1 0 0 1 51 38)">
</image>
<rect x="129.5" y="-22.4" transform="matrix(2.967024e-03 -1 1 2.967024e-03 81.8249 192.9496)" class="st2" width="16.3" height="155.7"/>
<path d="M60.1,47.3l155.2,0.5l-0.1,15.7L60.1,63L60.1,47.3 M59.6,46.8l-0.1,16.8l156.3,0.5l0.1-16.8L59.6,46.8z"/>
<image style="overflow:visible;opacity:0.75;enable-background:new    ;" width="187" height="48" xlink:href="B0F8446F.png"  transform="matrix(1 0 0 1 51 63)">
</image>
<rect x="129.5" y="2" transform="matrix(2.967024e-03 -1 1 2.967024e-03 57.3825 217.2192)" class="st2" width="16.3" height="155.7"/>
<path d="M60.1,71.8l155.2,0.5l-0.1,15.7L60,87.5L60.1,71.8 M59.5,71.2l0,16.8l156.3,0.5l0.1-16.8L59.5,71.2L59.5,71.2z"/>
<image style="overflow:visible;opacity:0.75;enable-background:new    ;" width="184" height="80" xlink:href="B0F8446D.png"  transform="matrix(1 0 0 1 49 82)">
</image>
<rect x="125.8" y="38.6" transform="matrix(0.2146 -0.9767 0.9767 0.2146 -6.7709 220.8526)" class="st2" width="16.3" height="152.1"/>
<path d="M61.6,90.7l148.1,32.5l-3.4,15.3L58.2,106L61.6,90.7 M61.1,90l-3.6,16.4l149.2,32.8l3.6-16.4L61.1,90z"/>
<image style="overflow:visible;opacity:0.75;enable-background:new    ;" width="183" height="90" xlink:href="B0F84462.png"  transform="matrix(1 0 0 1 42 102)">
</image>
<rect x="118.5" y="64.1" transform="matrix(0.2792 -0.9602 0.9602 0.2792 -43.3264 222.6084)" class="st2" width="16.3" height="152.1"/>
<path d="M56,111.4l145.6,42.3l-4.4,15.1L51.7,126.5L56,111.4 M55.6,110.7l-4.7,16.2l146.7,42.6l4.7-16.1L55.6,110.7L55.6,110.7z"/>
<image style="overflow:visible;opacity:0.75;enable-background:new    ;" width="180" height="99" xlink:href="B0F84466.png"  transform="matrix(1 0 0 1 34 123)">
</image>
<rect x="109.2" y="89.4" transform="matrix(0.3469 -0.9379 0.9379 0.3469 -78.5771 218.1194)" class="st2" width="16.3" height="152.1"/>
<path d="M49,131.9l142.1,52.6l-5.5,14.7L43.6,146.6L49,131.9 M48.7,131.1l-5.9,15.8l143.2,53l5.9-15.8
	C191.9,184.1,48.7,131.1,48.7,131.1z"/>
<image style="overflow:visible;opacity:0.75;enable-background:new    ;" width="178" height="107" xlink:href="B0F84467.png"  transform="matrix(1 0 0 1 26 145)">
</image>
<rect x="97.7" y="114.3" transform="matrix(0.3903 -0.9207 0.9207 0.3903 -110.7175 213.513)" class="st2" width="16.3" height="152"/>
<path d="M41.5,154.4L180.8,214l-6.2,14.4L35.3,168.9L41.5,154.4 M41.2,153.6l-6.6,15.5L175,229.2l6.6-15.5L41.2,153.6L41.2,153.6z"
	/>
<text transform="matrix(1 0 0 1 270 157.8)" class="st3 st4">StackUnderflow</text>
</svg>
