<?xml version="1.0" encoding="utf-8"?>
<!-- Generator: Adobe Illustrator 21.1.0, SVG Export Plug-In . SVG Version: 6.00 Build 0)  -->
<svg version="1.1" id="Lager_1" xmlns="http://www.w3.org/2000/svg" xmlns:xlink="http://www.w3.org/1999/xlink" x="0px" y="0px"
	 viewBox="0 0 1366 768" style="enable-background:new 0 0 1366 768;" xml:space="preserve">
<style type="text/css">
	.st0{fill:#B3B3B3;}
	.st1{fill:#FFFFFF;}
	.st2{fill:#FF931E;}
</style>
<g>
	
		<rect x="680.8" y="204.6" transform="matrix(2.970094e-03 -1 1 2.970094e-03 525.0328 978.7249)" class="st0" width="145" height="43"/>
	<path class="st1" d="M732.5,154l42,0.1l-0.4,144l-42-0.1L732.5,154 M731.6,153l-0.4,146l44,0.1l0.4-146L731.6,153L731.6,153z"/>
</g>
<g>
	
		<rect x="564.5" y="30.6" transform="matrix(2.985194e-03 -1 1 2.985194e-03 409.6667 761.029)" class="st0" width="44" height="289"/>
	<path class="st1" d="M442.6,153.1l288,0.9l-0.1,43l-288-0.9L442.6,153.1 M441.6,152.1l-0.1,45l290,0.9l0.1-45L441.6,152.1
		L441.6,152.1z"/>
</g>
<g>
	
		<rect x="346.8" y="203.6" transform="matrix(2.973471e-03 -1 1 2.973471e-03 193.0184 643.7368)" class="st0" width="145" height="43"/>
	<path class="st1" d="M398.6,153l42,0.1l-0.4,144l-42-0.1L398.6,153 M397.6,152l-0.4,146l44,0.1l0.4-146L397.6,152L397.6,152z"/>
</g>
<g>
	
		<rect x="572.8" y="91.1" transform="matrix(2.981990e-03 -1 1 2.981990e-03 360.0177 811.2327)" class="st2" width="28" height="268"/>
	<path d="M453.4,211.2l267,0.8l-0.1,27l-267-0.8L453.4,211.2 M452.4,210.2l-0.1,29l269,0.8l0.1-29L452.4,210.2L452.4,210.2z"/>
</g>
<g>
	
		<rect x="572.7" y="133.1" transform="matrix(2.964603e-03 -1 1 2.964603e-03 317.9038 852.9871)" class="st2" width="28" height="268"/>
	<path d="M453.3,253.2l267,0.8l-0.1,27l-267-0.8L453.3,253.2 M452.3,252.2l-0.1,29l269,0.8l0.1-29L452.3,252.2L452.3,252.2z"/>
</g>
<g>
	
		<rect x="566.4" y="196" transform="matrix(0.2145 -0.9767 0.9767 0.2145 136.5585 823.7089)" class="st2" width="28" height="261.8"/>
	<path d="M455.9,285.8l254.8,56l-5.8,26.4l-254.8-56L455.9,285.8 M455.2,284.6l-6.2,28.3l256.7,56.4l6.2-28.3L455.2,284.6
		L455.2,284.6z"/>
</g>
<g>
	
		<rect x="553.7" y="239.9" transform="matrix(0.2791 -0.9603 0.9603 0.2791 53.2028 812.5318)" class="st2" width="28" height="261.8"/>
	<path d="M446.3,321.5l250.5,72.8l-7.5,25.9l-250.5-72.8L446.3,321.5 M445.6,320.2l-8.1,27.8l252.4,73.3l8.1-27.8L445.6,320.2
		L445.6,320.2z"/>
</g>
<g>
	
		<rect x="537.9" y="283.6" transform="matrix(0.347 -0.9379 0.9379 0.347 -28.3734 788.3167)" class="st2" width="28" height="261.8"/>
	<path d="M434.3,356.6l244.6,90.5l-9.4,25.3l-244.6-90.5L434.3,356.6 M433.7,355.3l-10.1,27.2l246.5,91.2l10.1-27.2L433.7,355.3
		L433.7,355.3z"/>
</g>
<g>
	
		<rect x="521.9" y="328.2" transform="matrix(0.3934 -0.9194 0.9194 0.3934 -97.0706 771.2151)" class="st2" width="28" height="261.8"/>
	<path d="M421.3,395.4l239.8,102.6l-10.6,24.8L410.7,420.3L421.3,395.4 M420.8,394.1l-11.4,26.7L651,524.2l11.4-26.7L420.8,394.1
		L420.8,394.1z"/>
</g>
</svg>
