<?xml version="1.0" encoding="utf-8"?>
<!-- Generator: Adobe Illustrator 21.1.0, SVG Export Plug-In . SVG Version: 6.00 Build 0)  -->
<svg version="1.1" id="Lager_1" xmlns="http://www.w3.org/2000/svg" xmlns:xlink="http://www.w3.org/1999/xlink" x="0px" y="0px"
	 viewBox="0 0 1366 768" style="enable-background:new 0 0 1366 768;" xml:space="preserve">
<style type="text/css">
	.st0{fill:#B3B3B3;}
	.st1{fill:#FFFFFF;}
	.st2{fill:#FF931E;}
</style>
<g>
	
		<rect x="680.9" y="203.6" transform="matrix(2.970081e-03 -1 1 2.970081e-03 526.0371 977.7947)" class="st0" width="145" height="43"/>
	<path class="st1" d="M732.5,153l42,0.1l-0.4,144l-42-0.1L732.5,153 M731.6,152l-0.4,146l44,0.1l0.4-146L731.6,152L731.6,152z"/>
</g>
<g>
	
		<rect x="564.5" y="29.6" transform="matrix(2.985181e-03 -1 1 2.985181e-03 410.7157 760.047)" class="st0" width="44" height="289"/>
	<path class="st1" d="M442.6,152.1l288,0.9l-0.1,43l-288-0.9L442.6,152.1 M441.6,151.1l-0.1,45l290,0.9l0.1-45L441.6,151.1
		L441.6,151.1z"/>
</g>
<g>
	
		<rect x="346.9" y="202.6" transform="matrix(2.973458e-03 -1 1 2.973458e-03 194.013 642.8031)" class="st0" width="145" height="43"/>
	<path class="st1" d="M398.6,152l42,0.1l-0.4,144l-42-0.1L398.6,152 M397.6,151l-0.4,146l44,0.1l0.4-146L397.6,151L397.6,151z"/>
</g>
<g>
	
		<rect x="572.9" y="90.1" transform="matrix(2.981977e-03 -1 1 2.981977e-03 361.0145 810.3007)" class="st2" width="28" height="268"/>
	<path d="M453.4,210.2l267,0.8l-0.1,27l-267-0.8L453.4,210.2 M452.4,209.2l-0.1,29l269,0.8l0.1-29L452.4,209.2L452.4,209.2z"/>
</g>
<g>
	
		<rect x="572.7" y="132.1" transform="matrix(2.964590e-03 -1 1 2.964590e-03 318.9259 852.0307)" class="st2" width="28" height="268"/>
	<path d="M453.3,252.2l267,0.8l-0.1,27l-267-0.8L453.3,252.2 M452.3,251.2l-0.1,29l269,0.8l0.1-29L452.3,251.2L452.3,251.2z"/>
</g>
<g>
	
		<rect x="566.3" y="195.1" transform="matrix(0.2145 -0.9767 0.9767 0.2145 137.4872 822.8628)" class="st2" width="28" height="261.8"/>
	<path d="M455.9,284.8l254.8,56l-5.8,26.4l-254.8-56L455.9,284.8 M455.2,283.6l-6.2,28.3l256.7,56.4l6.2-28.3L455.2,283.6
		L455.2,283.6z"/>
</g>
<g>
	
		<rect x="553.7" y="239" transform="matrix(0.2791 -0.9603 0.9603 0.2791 54.1169 811.8041)" class="st2" width="28" height="261.8"/>
	<path d="M446.3,320.5l250.5,72.8l-7.5,25.9l-250.5-72.8L446.3,320.5 M445.6,319.2l-8.1,27.8l252.4,73.3l8.1-27.8L445.6,319.2
		L445.6,319.2z"/>
</g>
<g>
	
		<rect x="537.9" y="282.6" transform="matrix(0.347 -0.9379 0.9379 0.347 -27.4348 787.6399)" class="st2" width="28" height="261.8"/>
	<path d="M434.3,355.6l244.6,90.5l-9.4,25.3l-244.6-90.5L434.3,355.6 M433.7,354.3l-10.1,27.2l246.5,91.2l10.1-27.2L433.7,354.3
		L433.7,354.3z"/>
</g>
<g>
	
		<rect x="521.8" y="327.2" transform="matrix(0.3934 -0.9194 0.9194 0.3934 -96.1293 770.5449)" class="st2" width="28" height="261.8"/>
	<path d="M421.3,394.4L661.1,497l-10.6,24.8L410.7,419.3L421.3,394.4 M420.8,393.1l-11.4,26.7L651,523.2l11.4-26.7L420.8,393.1
		L420.8,393.1z"/>
</g>
</svg>
